<svg xmlns="http://www.w3.org/2000/svg" width="250" height="214.79" viewBox="0 0 250 214.79"><defs><style>.a{fill:#6ad9ff;}.b{fill:#006bff;}.c{fill:#0045dc;}.d{fill:#9bbfb5;}.e{fill:#fcf1d6;}.f{fill:#323232;}.g{fill:#fff;}</style></defs><title>51D_SWIFT</title><path class="a" d="M194.55,58.28c1.16.59,1-.2.82,1.43-5.65-.59-9.25-.24-12.51-4.77-.6-.83-.64-2.12-1.46-2.76a26.07,26.07,0,0,0-2.56-1.31,14.88,14.88,0,0,1-4.37-4.6c-.62-1-.6-2.48-1.48-3.26a31.53,31.53,0,0,0-2.74-1.57,10.58,10.58,0,0,1-2.58-2.6c-.55-.9-.55-3.44-1.47-4.06s-4.62-.46-6.18-.49c-14.37-.29-26,.47-40.56-3.22,11,.27,18.24-.68,28.64-1.86,3.37-.38,7.18-1.18,10.4-1.26a24.18,24.18,0,0,1,14.26,4.64c7,4.82,5.82,11.71,10.79,17.61C186.3,53.47,189.91,55.9,194.55,58.28Z" transform="translate(0 -17.4)"/><path class="b" d="M168.91,43.24a13.34,13.34,0,0,1,2.24,1.29c.49.48.63,1.49,1,2.17a15.86,15.86,0,0,0,5.35,6c.57.38,2,.51,2.62,1,.77.65.49,2.21,1.11,2.72,5.39,4.42,7.36,7.8,13.43,8.46-.5.67-1.12.28-1.86.42a29.85,29.85,0,0,0-4.52.85C177.56,69,167,72.76,157.79,81.38a30.22,30.22,0,0,1-3.69-2c4.41-2.31,8.74-4.86,13.21-7.69,1.08-.68,4.31-2.31,2.94-3.45-.89-.74-3.12.77-4.47,1.61-4.6,2.84-8.56,6-13,7.64-3.52,1.3-7.36-.08-11.11-3.17,3-1.27,6.77-2.29,10.25-3.92,1.65-.77,3.39-1.7,5.08-2.55,1.53-.77,4.15-1.29,4.36-3.28-1-1.25-2.39-.19-3.23.23-3.39,1.71-6.33,3.19-9.66,4.59-6.67,2.79-13.23,5.49-21.87-1.63,1.77-.71,3.79-1,5.85-1.62a74.58,74.58,0,0,0,11.91-4.9c.69-.34,6.11-2.5,4.09-3.92-.92-.64-3.49,1.07-4.67,1.66-1.78.89-3.24,1.62-4.53,2.22-5.94,2.79-12.65,5.45-19.51,3.43a29.58,29.58,0,0,1-10.92-6.1c7.72,1.11,15.68-.65,23.11-2.65,1-.28,6.81-1.45,7-2.89.34-2.36-3.67-.36-4.79,0-1.81.58-3.23.88-4.57,1.24-10.9,2.91-24.74,5.29-37-5.67,12,2.44,23.88,1.15,34.78-.61,1.42-.22,3.66,0,4.35-1.68-.36-1.56-2-.9-2.95-.73a120.55,120.55,0,0,1-23.66,2.17c-9,0-19.75-1.48-29-9.39a130.84,130.84,0,0,0,43.05,2.21c.88-.09,5.59,0,5.52-1.65,0-1.27-2.35-.88-3.07-.8-12.78,1.33-25.14,1.74-38.73-.69-7.42-1.33-17.81-3.16-23-10.15-.07-.05-.13-.1,0-.19A221.54,221.54,0,0,0,83.93,30c5.67.4,11.85.85,17.47,1a43.31,43.31,0,0,1,5.89.16c1.24.23,2.47.83,3.69,1.16,18.73,4.94,36,3.86,53.35,4.26A12,12,0,0,0,168.91,43.24Z" transform="translate(0 -17.4)"/><path class="a" d="M234.4,37.27c-.09-.08-.09-.18,0-.3,3.17-1.34,6.92-5,10-6.49,0,3.52-2,8.61-2.3,12.21C240,40.66,237.79,38.51,234.4,37.27Z" transform="translate(0 -17.4)"/><path class="c" d="M227.23,37.5c-.49.07-1,.07-1.45.13a18.81,18.81,0,0,0-13.88,9.23c-2.68,4.38-2.8,8.88-2.29,13,1,8.29,4.84,16.12,2.85,24.29-5.14,2.25-13.13,4.3-17.89,9.34-2.31,2.46-3.68,5.75-1.27,7.47-5.27,3.06-10.41,11.21-11,15.85-6.3,5.15-10.65,11-16.59,15.55-17.9,13.65-36.83,18.26-57.58,20.9-27.68,3.54-53.91,3.63-84.79-8.44,10.46.47,17.92.87,27.88.63,21.29-.54,35.74-2.79,54.13-9.48,6.92-2.51,13.69-5.59,20.43-8.52.94-.41,2-.7,3-1.07a2.35,2.35,0,0,0-.68-4.59l-.51,0C100,118.72,69.7,110,41.13,87.39c15.12,8.87,29.42,12.79,43,15.49,18.73,3.74,31.1,2.79,48.6,2.34,1.91,0,4-.28,6.39-.35,2-.06,5.31.35,6.37-.85.86-1,.92-2.75,1.56-4.24a49.49,49.49,0,0,1,8.73-13.15c11.29-12,23.63-16.73,37.18-19.81,1.45-.32,7.18-.62,8-2,.55-.95-.92-3.47-1.21-4.72a16.25,16.25,0,0,1,3-14.34c6.77-8.8,15.74-10.93,25.5-8.68C228.25,37.39,227.49,37.46,227.23,37.5Z" transform="translate(0 -17.4)"/><path class="a" d="M222,110.48c4.19-2.93,8.57-5.11,12.21-9.52,11.73-14.27,15.3-31.8,12.79-43.6A32.28,32.28,0,0,0,240.27,44a16.3,16.3,0,0,0-6.57-3.84,19.25,19.25,0,0,0-5.13-.79c-5,.42-9.82,1.93-13.46,6.74a18,18,0,0,0-3.57,10.49c-.14,8.05,4.81,16.23,3.92,24.75-.1,1-.59,2-.6,3a31.58,31.58,0,0,0,.52,3.68C216.39,96.3,218.56,102.76,222,110.48Z" transform="translate(0 -17.4)"/><path class="a" d="M211.4,166.78c4.76-5.66,9.87-11.45,15.35-15.46,1.11-.81,5.15-3.06,5-4.22-.15-1-2.47-1.74-3.13-2.28-2.87-2.31-4.42-5.7-4.21-8.52.1-1.35,1.08-2.85.48-3.9-.38-.67-1.38-1.21-2.06-1.83-2.73-2.47-4.86-5.29-5.29-8.17-.26-1.77.63-4.37-.07-5.67-.61-1.12-2.08-1.86-2.76-2.87A16.85,16.85,0,0,1,212.4,105c0-3.56,1-7.39,1.63-11.44.93,3.83,1.52,7,2.59,10.49a46.79,46.79,0,0,0,4,10.16c4.47,7.64,14.7,13.49,18.32,21.28,1.39,3,2.39,7.11,1.54,10.53a32.12,32.12,0,0,1-1.69,5c-1.15,2.38-3.62,4.46-5.49,6.33-13.33,13.31-27.21,24.29-40.8,35.09A237.75,237.75,0,0,1,211.4,166.78Z" transform="translate(0 -17.4)"/><path class="b" d="M189.61,137.4c1-.73,1.29-1.75.6-2.23-1-.64-3.33,1.12-4.07,1.52-4.35,2.35-8.08,4.27-12,6.61-.71-4.44,4.35-9.12,8.25-12.14a75.82,75.82,0,0,1,7.91-5.58c.47-.28,5-1.7,2.91-3.16-.9-.61-3.25.91-3.92,1.29-4.06,2.28-7.27,5.26-10.86,7.75.42-2.46.94-6.24,3.53-9.38,1.71-2.07,4.79-4,7-5.47,1-.64,2.14-1.47,3.55-2.31.83-.49,3.62-1.66,2-2.85-1.33-1-3.07,1-4.15,1.64-1.48.92-2.7,1.7-4,2.39,1.32-3.31,2.37-6.79,4.89-9.89a23.74,23.74,0,0,1,5.1-4.14c1.71-1.18,4.34-1.7,4.58-3.64-2.11-1.72-3.93,1.2-5.84,1.63-1.49-1.07-.47-2.36.3-3.36,3.79-4.94,10.2-5.61,15.17-7.37.47,10.43-5.38,20.6,3.79,29.06-.95,6,2.4,11.17,8.27,15.62-1.69,5.47.32,10.11,5.61,14-10.21,7.27-21,19.82-30.08,32.56-3.65,5.11-10.4,12.56-11.6,17.41-13.19,10.67-24,21.25-37.28,31.68A39,39,0,0,1,156.8,211a89.39,89.39,0,0,1,12.35-12.68,91.79,91.79,0,0,1,9.88-7c.63-.4,3.18-1.83,1.5-2.83-.68-.41-2.23.58-3.46,1.38-9.88,6.41-21.31,16.09-27.47,29.07-.84-2.63-1.95-5.64-1.38-8.66,1.34-7.15,8.28-13.72,13.78-19.09,2-1.9,4.22-3.5,6.23-5.1,2.23-1.78,4.26-3.84,6.31-5.22,1-.65,2.8-1.46,4-2.21.79-.49,3.89-2,2.05-3.15-1-.63-2.75,1.12-4.17,1.94-1.64.95-3.2,1.63-4.08,2.32-8.18,6.42-15.72,12.51-22.75,21.82-1.47-8.26,6.2-18.16,13.53-24.22,6.43-5.31,13-9.31,19.53-13.7,1.21-.81,3.78-1.7,2.23-2.9s-6.22,2.85-7.27,3.54c-7.23,4.73-14.06,9.4-20.54,15.53a28.28,28.28,0,0,1,5.44-13.1c3.34-4.38,8.46-7.38,12.69-10.56a105.29,105.29,0,0,1,9.68-7c.55-.32,3.23-1.23,2.45-2.45-1-1.56-4.55,1.16-5.4,1.72-5.52,3.63-10.2,7.53-15.25,11.34.31-3.91,2.88-10.16,6.7-13.19a54.39,54.39,0,0,1,9.21-5.48A57.29,57.29,0,0,0,189.61,137.4Z" transform="translate(0 -17.4)"/><path class="d" d="M191.87,37c.11.22.2.43.3.64l0,0C192.05,37.41,192,37.18,191.87,37Z" transform="translate(0 -17.4)"/><path class="e" d="M128,124.07l.16-.07C128.13,124.06,128.08,124.11,128,124.07Z" transform="translate(0 -17.4)"/><polygon class="e" points="48.7 0 48.7 0.01 48.69 0.01 48.7 0"/><path class="f" d="M20.54,146.62c10.7,4,20,7.53,30,9.38,11.19,2.06,18.21,3.41,29.41,3,26.06-1,39.59-3.06,63.36-10.86,10,.16,19.13-2.72,28.1-6.37a13.14,13.14,0,0,0,.58,3.06c-3.93,3.35-7.53,10.24-7.89,14.76a1.72,1.72,0,0,0,.56,1.77c-6.73,5.46-10.11,15.16-10.4,21.51-6.1,7.55-8.49,15.85-6.6,22.24-3.2,6.51-1.65,12,.8,17.18a39,39,0,0,0-1.12,5.14c-.24,1.39-.92,4,.68,4.73,1.32.61,4.95-2.89,6.12-3.88,13.45-11.32,27.33-23.83,40.69-34.66,11.51-9.34,23.2-18.83,34.87-29.65,3.78-3.51,9.28-7.7,11.42-12.57,3.61-8.18,1.69-15.59-3.39-21.87-4.09-5.06-9.9-9.49-14.12-14.86,5.22-3.65,12.06-11.17,16.51-18A63.29,63.29,0,0,0,248.27,78c3.07-12,2.26-23.49-4.13-32.58.34-4,2.35-9.36,2.56-13.67.05-1,.43-3.22-.57-3.86-1.49-1-6.55,3.52-7.73,4.26-2.5,1.56-4.37,2.38-6.52,4a27.21,27.21,0,0,0-16.44-1.56c-8.5,2-19.78,12.09-18.68,22.39-7.07-3.29-11.76-7.41-14-12.39s-3.11-10-8.53-13.72c-11.08-7.7-20.19-4.44-29.77-3.43-4.82.51-9.52,1.14-14.08,1.4-4.71.27-9.56,0-14.43.08s-9.52.08-14.47-.11C91.59,28.43,82.7,27.9,72,26.7c-3.57-.4-7.14-.77-11.25-1.63-1.45-.31-3.13-.95-3.71-.36-1,1,.34,3.05,1,4a24.4,24.4,0,0,0,8.26,6.5c1.67.88,3.58,1.19,4.86,2,1.11.7,2.4,2.21,3.58,3.18a40,40,0,0,0,9.12,5.72c1.58.68,3.6.85,4.64,1.54.69.44,1.17,1.51,1.84,2.17a32.84,32.84,0,0,0,8.39,5.78c1.67.82,3.93,1.08,5.39,2,1.08.66,1.88,2,2.95,2.82,4.24,3.37,10.91,6.83,15.67,7.22,4.11,3.56,11.51,8.37,15.89,6.87,2.62,3.25,8.91,6.7,12.52,5.74A46.33,46.33,0,0,0,156,83.08c-4.84,4.69-12,12.28-13.55,18.42-4.68.64-8.13,1.53-13,1.56-14.46.08-24.13,1.64-39.65-1.38-16.71-3.26-37-7.55-55.48-21.24a32.42,32.42,0,0,1-3.23-2.65S26,73.65,22.4,70.13c0,0,5.82,8.62,9.24,12.23C42.26,93.56,59.87,104,77.2,111.62a158.36,158.36,0,0,0,37.67,11.77c4.68.9,6.1.39,10.17.76,0,0,3-.08,3-.08l.16-.07c0,.06-4.41-.58-4.48-.62-17.85,8.27-27.51,13.33-47,16.52a245.23,245.23,0,0,1-32.45,3s-30.62-.62-44.2-5.33C0,137.56,12.94,143.79,20.54,146.62Zm172,45.79a237.75,237.75,0,0,1,18.91-25.63c4.76-5.66,9.87-11.45,15.35-15.46,1.11-.81,5.15-3.06,5-4.22-.15-1-2.47-1.74-3.13-2.28-2.87-2.31-4.42-5.7-4.21-8.52.1-1.35,1.08-2.85.48-3.9-.38-.67-1.38-1.21-2.06-1.83-2.73-2.47-4.86-5.29-5.29-8.17-.26-1.77.63-4.37-.07-5.67-.61-1.12-2.08-1.86-2.76-2.87A16.85,16.85,0,0,1,212.4,105c0-3.56,1-7.39,1.63-11.44.93,3.83,1.52,7,2.59,10.49a46.79,46.79,0,0,0,4,10.16c4.47,7.64,14.7,13.49,18.32,21.28,1.39,3,2.39,7.11,1.54,10.53a32.12,32.12,0,0,1-1.69,5c-1.15,2.38-3.62,4.46-5.49,6.33C220,170.63,206.08,181.61,192.49,192.41Zm-9.9-51.32a57.29,57.29,0,0,0,7-3.69c1-.73,1.29-1.75.6-2.23-1-.64-3.33,1.12-4.07,1.52-4.35,2.35-8.08,4.27-12,6.61-.71-4.44,4.35-9.12,8.25-12.14a75.82,75.82,0,0,1,7.91-5.58c.47-.28,5-1.7,2.91-3.16-.9-.61-3.25.91-3.92,1.29-4.06,2.28-7.27,5.26-10.86,7.75.42-2.46.94-6.24,3.53-9.38,1.71-2.07,4.79-4,7-5.47,1-.64,2.14-1.47,3.55-2.31.83-.49,3.62-1.66,2-2.85-1.33-1-3.07,1-4.15,1.64-1.48.92-2.7,1.7-4,2.39,1.32-3.31,2.37-6.79,4.89-9.89a23.74,23.74,0,0,1,5.1-4.14c1.71-1.18,4.34-1.7,4.58-3.64-2.11-1.72-3.93,1.2-5.84,1.63-1.49-1.07-.47-2.36.3-3.36,3.79-4.94,10.2-5.61,15.17-7.37.47,10.43-5.38,20.6,3.79,29.06-.95,6,2.4,11.17,8.27,15.62-1.69,5.47.32,10.11,5.61,14-10.21,7.27-21,19.82-30.08,32.56-3.65,5.11-10.4,12.56-11.6,17.41-13.19,10.67-24,21.25-37.28,31.68A39,39,0,0,1,156.8,211a89.39,89.39,0,0,1,12.35-12.68,91.79,91.79,0,0,1,9.88-7c.63-.4,3.18-1.83,1.5-2.83-.68-.41-2.23.58-3.46,1.38-9.88,6.41-21.31,16.09-27.47,29.07-.84-2.63-1.95-5.64-1.38-8.66,1.34-7.15,8.28-13.72,13.78-19.09,2-1.9,4.22-3.5,6.23-5.1,2.23-1.78,4.26-3.84,6.31-5.22,1-.65,2.8-1.46,4-2.21.79-.49,3.89-2,2.05-3.15-1-.63-2.75,1.12-4.17,1.94-1.64.95-3.2,1.63-4.08,2.32-8.18,6.42-15.72,12.51-22.75,21.82-1.47-8.26,6.2-18.16,13.53-24.22,6.43-5.31,13-9.31,19.53-13.7,1.21-.81,3.78-1.7,2.23-2.9s-6.22,2.85-7.27,3.54c-7.23,4.73-14.06,9.4-20.54,15.53a28.28,28.28,0,0,1,5.44-13.1c3.34-4.38,8.46-7.38,12.69-10.56a105.29,105.29,0,0,1,9.68-7c.55-.32,3.23-1.23,2.45-2.45-1-1.56-4.55,1.16-5.4,1.72-5.52,3.63-10.2,7.53-15.25,11.34.31-3.91,2.88-10.16,6.7-13.19A54.39,54.39,0,0,1,182.59,141.09ZM150,144.72a130.42,130.42,0,0,0,27.45-18.93,12.33,12.33,0,0,0-1.31,6.48c-.31.45.86.93.29,1.13-1.58,1.55-3.19,4.53-4.2,5.94C164.54,141.91,158,144.25,150,144.72ZM187.9,65.87c-10.68,2.95-21,6.89-30.11,15.51a30.22,30.22,0,0,1-3.69-2c4.41-2.31,8.74-4.86,13.21-7.69,1.08-.68,4.31-2.31,2.94-3.45-.89-.74-3.12.77-4.47,1.61-4.6,2.84-8.56,6-13,7.64-3.52,1.3-7.36-.08-11.11-3.17,3-1.27,6.77-2.29,10.25-3.92,1.65-.77,3.39-1.7,5.08-2.55,1.53-.77,4.15-1.29,4.36-3.28-1-1.25-2.39-.19-3.23.23-3.39,1.71-6.33,3.19-9.66,4.59-6.67,2.79-13.23,5.49-21.87-1.63,1.77-.71,3.79-1,5.85-1.62a74.58,74.58,0,0,0,11.91-4.9c.69-.34,6.11-2.5,4.09-3.92-.92-.64-3.49,1.07-4.67,1.66-1.78.89-3.24,1.62-4.53,2.22-5.94,2.79-12.65,5.45-19.51,3.43a29.58,29.58,0,0,1-10.92-6.1c7.72,1.11,15.68-.65,23.11-2.65,1-.28,6.81-1.45,7-2.89.34-2.36-3.67-.36-4.79,0-1.81.58-3.23.88-4.57,1.24-10.9,2.91-24.74,5.29-37-5.67,12,2.44,23.88,1.15,34.78-.61,1.42-.22,3.66,0,4.35-1.68-.36-1.56-2-.9-2.95-.73a120.55,120.55,0,0,1-23.66,2.17c-9,0-19.75-1.48-29-9.39a130.84,130.84,0,0,0,43.05,2.21c.88-.09,5.59,0,5.52-1.65,0-1.27-2.35-.88-3.07-.8-12.78,1.33-25.14,1.74-38.73-.69-7.42-1.33-17.81-3.16-23-10.15-.07-.05-.13-.1,0-.19A221.54,221.54,0,0,0,83.93,30c5.67.4,11.85.85,17.47,1a43.31,43.31,0,0,1,5.89.16c1.24.23,2.47.83,3.69,1.16,18.73,4.94,36,3.86,53.35,4.26a12,12,0,0,0,4.58,6.64,13.34,13.34,0,0,1,2.24,1.29c.49.48.63,1.49,1,2.17a15.86,15.86,0,0,0,5.35,6,18.8,18.8,0,0,1,2.2,1.1c.76.65,1,2,1.53,2.64C181.22,56.41,190.48,65.16,187.9,65.87ZM183.55,50.2c2.75,3.27,6.36,5.7,11,8.08,1.16.59.28-.6.12,1-5.65-.59-8.55.16-11.81-4.37-.6-.83-.64-2.12-1.46-2.76a26.07,26.07,0,0,0-2.56-1.31,14.88,14.88,0,0,1-4.37-4.6c-.62-1-.6-2.48-1.48-3.26a31.53,31.53,0,0,0-2.74-1.57,10.58,10.58,0,0,1-2.58-2.6c-.55-.9-.55-3.44-1.47-4.06s-4.62-.46-6.18-.49c-14.37-.29-26,.47-40.56-3.22,11,.27,18.24-.68,28.64-1.86,3.37-.38,7.18-1.18,10.4-1.26a24.18,24.18,0,0,1,14.26,4.64C179.8,37.41,178.58,44.3,183.55,50.2Zm44.64-13.12c.06.31-.7.38-1,.42-.49.07-1,.07-1.45.13a18.81,18.81,0,0,0-13.88,9.23c-2.68,4.38-2.8,8.88-2.29,13,1,8.29,4.84,16.12,2.85,24.29-5.14,2.25-13.13,4.3-17.89,9.34-2.31,2.46-3.68,5.75-1.27,7.47-5.27,3.06-10.41,11.21-11,15.85-6.3,5.15-10.65,11-16.59,15.55-17.9,13.65-36.83,18.26-57.58,20.9-27.68,3.54-53.91,3.63-84.79-8.44,10.46.47,15,.72,25,.9a152.86,152.86,0,0,0,57-9.75c6.92-2.51,13.69-5.59,20.43-8.52,2.22-1,5.12-1.31,6.67-3.41-.42-2.28-3.22-2.11-4.84-2.29C100,118.72,69.7,110,41.13,87.39c15.12,8.87,29.42,12.79,43,15.49,18.73,3.74,31.1,2.79,48.6,2.34,1.91,0,4-.28,6.39-.35,2-.06,5.31.35,6.37-.85.86-1,.92-2.75,1.56-4.24a49.49,49.49,0,0,1,8.73-13.15c11.29-12,23.63-16.73,37.18-19.81,1.45-.32,7.18-.62,8-2,.55-.95-.92-3.47-1.21-4.72a16.25,16.25,0,0,1,3-14.34C209.46,37,218.43,34.83,228.19,37.08Zm14,5.61c-2.17-2-4.37-4.18-7.76-5.42-.09-.08-.09-.18,0-.3,3.17-1.34,6.92-5,10-6.49C244.48,34,242.49,39.09,242.16,42.69ZM222,110.48c-3.43-7.72-5.6-14.18-6.61-22.41a31.58,31.58,0,0,1-.52-3.68c0-1,.5-2,.6-3,.89-8.52-4.06-16.7-3.92-24.75a18,18,0,0,1,3.57-10.49c3.64-4.81,8.45-6.32,13.46-6.74,1.24-.1,3.69,1.1,4.71,1.44,2.56.87,5.51,1.58,7,3.19A32.28,32.28,0,0,1,247,57.36c2.51,11.8-1.06,29.33-12.79,43.6C230.56,105.37,226.18,107.55,222,110.48Z" transform="translate(0 -17.4)"/><path class="a" d="M176.18,132.27c-.31.45.86.93.29,1.13-1.58,1.55-3.19,4.53-4.2,5.94-7.73,2.57-14.31,4.91-22.23,5.38a130.42,130.42,0,0,0,27.45-18.93A12.33,12.33,0,0,0,176.18,132.27Z" transform="translate(0 -17.4)"/><ellipse class="g" cx="226.57" cy="35.25" rx="5.38" ry="5.05"/><path class="f" d="M224.81,58.1a5.65,5.65,0,0,1-4.05-7.1,6.14,6.14,0,0,1,7.56-3.81,5.66,5.66,0,0,1,4.06,7.1A6.15,6.15,0,0,1,224.81,58.1Zm3.11-9.67a4.75,4.75,0,0,0-5.84,2.94,4.37,4.37,0,0,0,3.13,5.49,4.76,4.76,0,0,0,5.85-2.94A4.37,4.37,0,0,0,227.92,48.43Z" transform="translate(0 -17.4)"/><ellipse class="f" cx="226.57" cy="35.25" rx="3.18" ry="2.99"/><ellipse class="g" cx="225.75" cy="33.52" rx="1.66" ry="1.56"/></svg>